HIERARCHY
ROOT root
{
	OFFSET 0.000000 0.000000 0.000000
	CHANNELS 6 Xposition Yposition Zposition Zrotation Yrotation Xrotation
	JOINT lhip
	{
		OFFSET 0.058581 -0.082280 -0.017664
		CHANNELS 3 Zrotation Yrotation Xrotation
		JOINT lknee
		{
			OFFSET 0.043451 -0.386469 0.008037
			CHANNELS 3 Zrotation Yrotation Xrotation
			JOINT lankle
			{
				OFFSET -0.014790 -0.426874 -0.037428
				CHANNELS 3 Zrotation Yrotation Xrotation
				JOINT ltoe
				{
					OFFSET 0.041054 -0.060286 0.122042
					CHANNELS 3 Zrotation Yrotation Xrotation
					End Site
					{
						OFFSET 0.000000 0.000000 0.000000
					}
				}
			}
		}
	}
	JOINT rhip
	{
		OFFSET -0.060310 -0.090513 -0.013543
		CHANNELS 3 Zrotation Yrotation Xrotation
		JOINT rknee
		{
			OFFSET -0.043257 -0.383688 -0.004843
			CHANNELS 3 Zrotation Yrotation Xrotation
			JOINT rankle
			{
				OFFSET 0.019056 -0.420046 -0.034562
				CHANNELS 3 Zrotation Yrotation Xrotation
				JOINT rtoe
				{
					OFFSET -0.034840 -0.062106 0.130323
					CHANNELS 3 Zrotation Yrotation Xrotation
					End Site
					{
						OFFSET 0.000000 0.000000 0.000000
					}
				}
			}
		}
	}
	JOINT lowerback
	{
		OFFSET 0.004439 0.124404 -0.038385
		CHANNELS 3 Zrotation Yrotation Xrotation
		JOINT upperback
		{
			OFFSET 0.004488 0.137956 0.026820
			CHANNELS 3 Zrotation Yrotation Xrotation
			JOINT chest
			{
				OFFSET -0.002265 0.056032 0.002855
				CHANNELS 3 Zrotation Yrotation Xrotation
				JOINT lowerneck
				{
					OFFSET -0.013390 0.211636 -0.033468
					CHANNELS 3 Zrotation Yrotation Xrotation
					JOINT upperneck
					{
						OFFSET 0.010113 0.088937 0.050410
						CHANNELS 3 Zrotation Yrotation Xrotation
						End Site
						{
							OFFSET 0.000000 0.000000 0.000000
						}
					}
				}
				JOINT lclavicle
				{
					OFFSET 0.071702 0.114000 -0.018898
					CHANNELS 3 Zrotation Yrotation Xrotation
					JOINT lshoulder
					{
						OFFSET 0.122921 0.045205 -0.019046
						CHANNELS 3 Zrotation Yrotation Xrotation
						JOINT lelbow
						{
							OFFSET 0.255332 -0.015649 -0.022946
							CHANNELS 3 Zrotation Yrotation Xrotation
							JOINT lwrist
							{
								OFFSET 0.265709 0.012698 -0.007375
								CHANNELS 3 Zrotation Yrotation Xrotation
								End Site
								{
									OFFSET 0.000000 0.000000 0.000000
								}
							}
						}
					}
				}
				JOINT rclavicle
				{
					OFFSET -0.082954 0.112472 -0.023707
					CHANNELS 3 Zrotation Yrotation Xrotation
					JOINT rshoulder
					{
						OFFSET -0.113228 0.046853 -0.008472
						CHANNELS 3 Zrotation Yrotation Xrotation
						JOINT relbow
						{
							OFFSET -0.260127 -0.014369 -0.031269
							CHANNELS 3 Zrotation Yrotation Xrotation
							JOINT rwrist
							{
								OFFSET -0.269108 0.006794 -0.006027
								CHANNELS 3 Zrotation Yrotation Xrotation
								End Site
								{
									OFFSET 0.000000 0.000000 0.000000
								}
							}
						}
					}
				}
			}
		}
	}
}
MOTION
Frames: 17
Frame Time: 0.033333
-1.806122 0.547447 1.024064 88.320183 0.787941 88.627358 2.386931 0.200989 0.090002 -3.867766 -7.695141 7.776785 0.963492 6.058083 -9.750655 0.000000 -0.000000 0.000000 -2.888164 -1.610870 -5.306939 1.350806 -0.834159 16.253048 1.283827 -4.507660 -11.766449 0.000000 -0.000000 0.000000 1.621612 -1.397625 6.702117 2.403828 -1.816915 -3.082137 -0.249862 -1.443354 0.982135 0.164348 -7.189863 -6.991735 -1.816622 -13.691493 6.227903 -23.837689 5.734675 3.114102 -58.253807 -6.423781 9.992769 9.759743 -27.061681 4.534288 -3.703270 -11.057767 -15.919348 24.473420 2.222863 -1.809340 58.805056 8.698076 14.001301 -5.104480 15.863640 -2.541804 6.217084 4.786080 -11.374707 
-1.804927 0.547993 1.024274 88.398493 0.941338 88.744466 2.513854 0.100941 0.083467 -3.874922 -7.752504 7.695797 0.767221 6.136373 -9.808835 0.000000 -0.000000 0.000000 -2.718598 -2.020169 -5.210526 1.351526 -0.413360 15.966508 1.415351 -4.627167 -11.685181 0.000000 -0.000000 0.000000 1.806322 -1.434066 6.416424 2.286935 -2.012435 -2.995890 -0.155728 -1.482510 1.130688 0.352105 -7.008482 -7.134053 -2.093665 -13.147777 6.696424 -23.734303 5.349539 3.216069 -58.232836 -6.720877 10.286382 9.819019 -28.784000 4.864970 -3.209672 -11.140405 -16.029389 24.035270 2.463194 -1.931910 58.423360 8.773541 13.700644 -5.452297 16.363141 -3.144188 5.832820 4.674568 -11.766951 
-1.804950 0.548509 1.024434 88.194713 0.950404 88.854476 2.482990 0.097431 -0.015134 -3.865625 -7.588139 7.661516 0.798217 6.137740 -9.807087 0.000000 -0.000000 0.000000 -2.719248 -1.971109 -5.369456 1.298895 -0.381871 15.931415 1.522310 -4.493591 -11.646551 0.000000 -0.000000 0.000000 1.714721 -1.465347 6.463573 2.284413 -2.036185 -3.039874 -0.175424 -1.422559 1.042013 0.475922 -6.784618 -6.890879 -1.934353 -12.969405 6.918397 -23.510102 5.041205 3.398655 -58.154854 -7.052791 10.560085 9.979563 -30.453107 4.966966 -3.007186 -11.341349 -16.093208 23.718288 2.723614 -1.998737 58.161093 9.245880 13.376300 -5.940030 16.097158 -3.846493 5.681315 4.684813 -11.997030 
-1.806115 0.549382 1.024972 87.631746 0.921698 88.864311 2.391213 0.289977 -0.117613 -3.859709 -7.289640 7.764072 0.746482 6.214035 -9.832796 0.000000 -0.000000 0.000000 -2.771180 -1.489560 -5.634554 1.234838 -0.452849 16.067394 1.722206 -4.363585 -11.620818 0.000000 -0.000000 0.000000 1.505979 -1.661363 7.083301 2.207091 -1.623686 -3.487920 -0.159548 -1.284227 0.900412 0.636886 -6.168903 -6.424162 -2.004359 -12.514820 7.878785 -23.274586 4.751152 3.507172 -57.875445 -7.447598 10.837967 10.037313 -32.237136 4.929025 -2.688543 -11.575724 -15.998867 23.641132 2.874345 -2.080472 57.437003 9.693080 13.091471 -6.345456 16.192970 -4.973029 5.419392 4.769782 -12.258972 
-1.806249 0.549937 1.025277 87.499098 0.953373 88.937582 2.383003 0.323333 -0.211514 -3.824047 -7.176768 7.763224 0.768527 6.192193 -9.808932 0.000000 -0.000000 0.000000 -2.763057 -1.482853 -5.730445 1.216059 -0.450912 16.015500 1.770445 -4.270369 -11.555456 0.000000 -0.000000 0.000000 1.460940 -1.680127 7.178310 2.225473 -1.625881 -3.594408 -0.186327 -1.271238 0.860205 0.732192 -5.809266 -5.997210 -2.019572 -12.090229 8.359779 -23.207395 4.613865 3.558663 -57.711511 -7.671594 10.961321 10.093386 -33.075810 4.864918 -2.534925 -11.653636 -16.089716 23.516116 2.920898 -2.095265 57.089073 9.965496 12.931583 -6.563746 16.283559 -5.509454 5.267964 4.811872 -12.473164 
-1.806427 0.550583 1.025590 87.338691 0.988565 89.019892 2.362489 0.349939 -0.296936 -3.790122 -7.087664 7.746174 0.802518 6.245704 -9.774105 0.000000 -0.000000 0.000000 -2.762557 -1.484234 -5.817460 1.237125 -0.348023 15.905149 1.863833 -4.226175 -11.475229 0.000000 -0.000000 0.000000 1.391743 -1.708918 7.261481 2.208364 -1.639069 -3.691316 -0.222090 -1.232697 0.766149 0.785641 -5.332563 -5.297912 -1.965238 -11.507153 9.131100 -23.024105 4.329029 3.748613 -57.555519 -7.942430 11.052267 10.161737 -33.844412 4.722878 -2.397253 -11.636561 -16.407312 23.317199 2.998229 -1.968869 56.703856 10.200381 12.726093 -6.767278 16.763734 -6.189428 5.030096 4.734108 -12.989715 
-1.806952 0.551246 1.025924 87.159999 1.034745 89.140155 2.358280 0.358168 -0.477176 -3.757470 -6.961598 7.781009 0.865878 6.293836 -9.746026 0.000000 -0.000000 0.000000 -2.743635 -1.394060 -6.036741 1.242969 -0.332948 15.914577 1.891874 -4.182712 -11.407093 0.000000 -0.000000 0.000000 1.312497 -1.714477 7.367505 2.221379 -1.651929 -3.785136 -0.249504 -1.215542 0.677815 0.796877 -4.862819 -4.542795 -1.952336 -10.949052 9.798055 -22.972218 4.114266 3.859761 -57.349621 -8.171753 11.086286 10.317288 -34.345905 4.446877 -2.218853 -11.576587 -16.418216 23.230075 3.005814 -1.869494 56.304467 10.410444 12.588008 -6.961740 17.357235 -6.662630 4.834206 4.623961 -13.285082 
-1.807322 0.551815 1.026188 86.975585 1.059159 89.268025 2.328816 0.381182 -0.619133 -3.710586 -6.825911 7.758060 0.921302 6.341297 -9.692894 0.000000 -0.000000 0.000000 -2.731960 -1.330608 -6.298024 1.212397 -0.335869 16.013599 1.954063 -4.091456 -11.370438 0.000000 -0.000000 0.000000 1.199335 -1.716773 7.544402 2.218939 -1.633638 -3.918755 -0.252111 -1.234567 0.615770 0.817895 -4.370635 -3.995130 -1.955667 -10.378422 10.203753 -22.896023 3.990638 3.923439 -57.221002 -8.306334 11.073632 10.478227 -34.599194 4.245532 -2.113618 -11.584512 -16.390531 23.129468 2.991316 -1.779758 56.102413 10.580468 12.551104 -7.222167 17.873984 -6.994904 4.698001 4.656488 -13.530389 
-1.807686 0.552395 1.026402 86.794667 1.090144 89.368428 2.308885 0.414859 -0.744238 -3.665808 -6.707289 7.761982 0.985026 6.372675 -9.679155 0.000000 -0.000000 0.000000 -2.711022 -1.271117 -6.521471 1.179665 -0.346055 16.113888 1.962514 -4.000336 -11.356040 0.000000 -0.000000 0.000000 1.108832 -1.708443 7.736553 2.220176 -1.649314 -3.946971 -0.224192 -1.234894 0.640531 0.745992 -3.965515 -3.744790 -1.906159 -9.914741 9.971131 -22.839966 3.869277 3.896393 -57.160981 -8.331165 11.030289 10.584812 -34.662969 4.077014 -1.953838 -11.581781 -16.427863 22.979744 3.006990 -1.759914 56.074109 10.641426 12.557864 -7.501380 18.474529 -7.202363 4.543721 4.711206 -13.858275 
-1.808022 0.552935 1.026544 86.582073 1.132012 89.491881 2.312316 0.451977 -0.928739 -3.655983 -6.568577 7.849750 0.973149 6.380790 -9.681119 0.000000 -0.000000 0.000000 -2.694276 -1.232305 -6.688212 1.168349 -0.301271 16.057594 2.000503 -3.889778 -11.277751 0.000000 -0.000000 0.000000 1.052283 -1.707060 7.961789 2.149307 -1.689781 -3.933248 -0.180981 -1.203901 0.712806 0.604379 -3.467903 -3.780394 -1.790057 -9.333961 9.390628 -22.658699 3.641507 3.923330 -57.225685 -8.231429 10.951830 10.661315 -34.423772 3.966461 -1.802162 -11.559670 -16.524942 22.746627 3.104805 -1.685496 56.244881 10.676035 12.571018 -7.702819 19.060688 -7.328089 4.370131 4.804768 -14.275546 
-1.808267 0.553434 1.026730 86.424247 1.143705 89.643814 2.284925 0.451978 -1.082587 -3.646076 -6.483444 7.826262 1.002904 6.439300 -9.630984 0.000000 -0.000000 0.000000 -2.704659 -1.159227 -6.883126 1.172314 -0.238342 16.016458 2.063567 -3.873975 -11.196250 0.000000 -0.000000 0.000000 1.033423 -1.732973 8.141768 2.061278 -1.678205 -4.006822 -0.176847 -1.173625 0.734830 0.533620 -2.919964 -3.908513 -1.748770 -8.692220 9.114146 -22.580766 3.503049 4.006657 -57.182550 -8.056788 10.878563 10.528384 -34.021877 4.051602 -1.800834 -11.552467 -16.522974 22.613939 3.133277 -1.527173 56.473812 10.621244 12.658134 -7.767331 19.403484 -7.284080 4.295386 4.850701 -14.478757 
-1.808739 0.554105 1.027115 86.255383 1.163287 89.831817 2.268475 0.465923 -1.266890 -3.651052 -6.406648 7.768670 1.084554 6.507805 -9.605136 0.000000 -0.000000 0.000000 -2.703567 -1.054324 -7.147605 1.179719 -0.198775 16.001752 2.087801 -3.883082 -11.124821 0.000000 -0.000000 0.000000 1.036394 -1.732412 8.365032 1.998435 -1.643096 -4.172539 -0.186300 -1.124512 0.717347 0.466860 -2.154174 -3.967638 -1.756640 -7.844044 9.137925 -22.628747 3.458455 4.062507 -57.054382 -7.866022 10.789146 10.260132 -33.376127 4.278029 -2.009737 -11.525269 -16.301078 22.591871 3.063361 -1.341895 56.670591 10.559725 12.777927 -7.704332 19.499786 -7.111136 4.325772 4.898814 -14.515710 
-1.808900 0.554738 1.027458 86.150575 1.165702 90.013526 2.239395 0.496215 -1.392275 -3.642758 -6.357667 7.637123 1.172645 6.542769 -9.531972 0.000000 -0.000000 0.000000 -2.720379 -1.044798 -7.353763 1.181797 -0.153649 15.950367 2.102635 -3.847417 -11.082608 0.000000 -0.000000 0.000000 1.010884 -1.721592 8.550579 1.944675 -1.608674 -4.351058 -0.183190 -1.090247 0.682592 0.436597 -1.220129 -3.962086 -1.741125 -6.862563 9.491039 -22.607212 3.454498 4.184222 -57.070403 -7.713728 10.689206 10.011519 -32.503618 4.530739 -2.303555 -11.505987 -16.069307 22.556160 2.964879 -1.088300 57.018655 10.592614 12.899898 -7.655870 19.110886 -6.876835 4.466970 5.019393 -14.475168 
-1.809045 0.555361 1.027783 86.102748 1.175372 90.166601 2.225992 0.499850 -1.489470 -3.624157 -6.306247 7.477109 1.264829 6.562506 -9.445483 0.000000 -0.000000 0.000000 -2.726412 -1.049789 -7.510740 1.176523 -0.144059 15.885617 2.114591 -3.817546 -11.038896 0.000000 -0.000000 0.000000 0.974041 -1.695295 8.756436 1.901753 -1.563912 -4.509339 -0.155203 -1.048276 0.626498 0.461552 -0.274017 -3.999291 -1.597963 -5.908144 9.873139 -22.592805 3.432892 4.338048 -57.141227 -7.609403 10.579733 9.760885 -31.497290 4.730044 -2.545622 -11.518063 -15.883420 22.578354 2.886786 -0.798041 57.357527 10.637624 12.986627 -7.610556 18.431033 -6.674820 4.627154 5.170959 -14.385657 
-1.809074 0.555946 1.028116 86.097880 1.195296 90.315755 2.222787 0.456877 -1.523522 -3.590960 -6.294070 7.208505 1.354781 6.608985 -9.314555 0.000000 -0.000000 0.000000 -2.734665 -1.063355 -7.618923 1.198699 -0.132818 15.766243 2.130728 -3.821674 -10.968806 0.000000 -0.000000 0.000000 0.944410 -1.644096 8.895828 1.875516 -1.504584 -4.611518 -0.111039 -1.020292 0.591323 0.462614 0.698088 -3.875960 -1.453838 -4.919414 10.222031 -22.607756 3.388758 4.490436 -57.209966 -7.502605 10.494656 9.547224 -30.513509 4.896423 -2.735326 -11.473122 -15.679197 22.632227 2.782937 -0.452263 57.589719 10.606039 13.052346 -7.457199 17.896105 -6.486457 4.756486 5.241790 -14.317987 
-1.809079 0.556447 1.028432 86.147424 1.217639 90.445521 2.234524 0.443115 -1.594691 -3.590073 -6.326368 7.050585 1.406403 6.623511 -9.217611 0.000000 -0.000000 0.000000 -2.741285 -1.100811 -7.677833 1.225804 -0.130809 15.622391 2.137175 -3.837571 -10.913856 0.000000 -0.000000 0.000000 0.904545 -1.569618 9.034765 1.856211 -1.455028 -4.662931 -0.032957 -0.986156 0.608642 0.450263 1.584500 -3.684938 -1.334896 -3.964581 10.380743 -22.625359 3.342391 4.592373 -57.280384 -7.397897 10.409285 9.356452 -29.728072 5.072830 -2.937672 -11.376968 -15.489410 22.661870 2.645393 -0.142657 57.799841 10.429159 13.095954 -7.318280 17.677896 -6.309289 4.899056 5.191867 -14.314227 
-1.809014 0.556874 1.028641 86.232822 1.247588 90.600516 2.257255 0.435440 -1.725328 -3.597258 -6.369320 6.961312 1.442898 6.614889 -9.154460 0.000000 -0.000000 0.000000 -2.728943 -1.148158 -7.771727 1.232077 -0.154175 15.503661 2.170760 -3.837270 -10.883629 0.000000 -0.000000 0.000000 0.888555 -1.521129 9.161652 1.826069 -1.386430 -4.748795 0.008626 -0.937678 0.711479 0.492197 2.314825 -3.566216 -1.228014 -3.245514 10.560715 -22.576121 3.390514 4.617871 -57.373950 -7.340445 10.368677 9.224965 -29.045474 5.322175 -3.081308 -11.441097 -15.270755 22.609817 2.494153 0.032656 58.226946 10.363357 13.196340 -7.318370 17.129426 -6.080802 5.111468 5.200558 -14.244437 
